<svg xmlns="http://www.w3.org/2000/svg" width="40" height="44" viewBox="0 0 40 44"><defs><style>.a{fill:#414849;}</style></defs><g transform="translate(0 0)"><path class="a" d="M25.809,11.69a12.156,12.156,0,0,1,4.418-6.305C34.4,2.14,38.293.794,42.852,1.026A49.874,49.874,0,0,1,50,2.039c3.334.666,5.755,1.829,7.4,3.556a13.889,13.889,0,0,1,2.964,4.795,19.228,19.228,0,0,1,.668,2.388l.062.265a9.238,9.238,0,0,0,.626,1.655c.154.34.307.681.438,1.027a2.482,2.482,0,0,1,.2,1.234,2.8,2.8,0,0,1-1.078,1.634c-.362.329-.6.561-.6.771a1.252,1.252,0,0,0,.129.313A28.339,28.339,0,0,0,64.043,24.9a3.048,3.048,0,0,1,.974,2.156,2.274,2.274,0,0,1-1.071,1.368,5.458,5.458,0,0,1-.771.444c-.319.161-.853.431-.89.625a1.238,1.238,0,0,0,.081.735c.11.23.224.428.322.6.271.476.726,1.273.04,1.844-.16.14-.432.353-.682.542a1.838,1.838,0,0,1,.238,1.062,1.051,1.051,0,0,1-.435.713c-.165.116-.342.218-.517.317-.434.246-.6.36-.662.589a2.054,2.054,0,0,0,.08.889c.043.192.084.385.11.576a4.251,4.251,0,0,1-.248,1.97,2.738,2.738,0,0,1-3.219,1.939,60.673,60.673,0,0,1-6.234-1.85c-1.661.974-2.71,3.92-2.984,5.025a.739.739,0,0,1-.718.559H28.777a.741.741,0,0,1-.594-.3.729.729,0,0,1-.113-.651,5.065,5.065,0,0,1,.832-1.425,5.67,5.67,0,0,0,.533-.807,14.4,14.4,0,0,0,.835-2.1,24.148,24.148,0,0,0,.871-4.337,12.315,12.315,0,0,0-.966-6.437,16.452,16.452,0,0,0-2.006-3.142c-.447-.6-.908-1.213-1.323-1.863a11.216,11.216,0,0,1-1.808-6.027A21.783,21.783,0,0,1,25.809,11.69Zm.705,6.206a9.785,9.785,0,0,0,1.58,5.263c.386.6.83,1.2,1.261,1.773a17.862,17.862,0,0,1,2.174,3.43,13.769,13.769,0,0,1,1.079,7.2,25.555,25.555,0,0,1-.926,4.593,15.9,15.9,0,0,1-.916,2.3,6.86,6.86,0,0,1-.67,1.033l-.03.04H46.9a11.68,11.68,0,0,1,2.6-4.685l-.547-.19c-.553-.192-.971-.338-1.181-.4-3.168-.987-4.752-2.416-4.709-4.247a.739.739,0,0,1,1.478.034c-.018.756.6,1.857,3.675,2.813.218.068.652.218,1.225.418.53.184,1.182.411,1.9.653h0a61.778,61.778,0,0,0,6.348,1.9,1.308,1.308,0,0,0,1.524-.984,2.82,2.82,0,0,0,.178-1.294c-.02-.152-.055-.3-.089-.455a3.222,3.222,0,0,1-.069-1.567,2.427,2.427,0,0,1,1.362-1.5l.158-.09a2.684,2.684,0,0,0-.283-.454.729.729,0,0,1,.142-1.042c.178-.13.6-.444.9-.685-.037-.068-.08-.143-.119-.211-.113-.2-.243-.429-.369-.692a2.693,2.693,0,0,1-.2-1.64c.172-.9,1.038-1.337,1.671-1.657a4.291,4.291,0,0,0,.614-.353,3.78,3.78,0,0,0,.435-.35c0-.11-.118-.378-.686-1.067a29.537,29.537,0,0,1-3.376-5.448,2.106,2.106,0,0,1-.289-.994,2.553,2.553,0,0,1,1.082-1.835c.3-.271.581-.528.613-.753a1.27,1.27,0,0,0-.118-.516c-.121-.32-.263-.633-.4-.946a10.454,10.454,0,0,1-.717-1.921l-.063-.267a17.793,17.793,0,0,0-.615-2.21A12.444,12.444,0,0,0,56.329,6.6c-1.432-1.5-3.6-2.522-6.622-3.126a48.579,48.579,0,0,0-6.932-.987c-4.182-.209-7.77,1.037-11.639,4.049a10.585,10.585,0,0,0-3.907,5.552A20.343,20.343,0,0,0,26.514,17.9Z" transform="translate(-25.032 -1)"/><path class="a" d="M197.157,52H198.7a8.509,8.509,0,0,1,.7-1.677L198.3,49.228a.744.744,0,0,1-.084-.952,10.594,10.594,0,0,1,2.633-2.633.743.743,0,0,1,.952.084l1.091,1.091a8.511,8.511,0,0,1,1.678-.7V44.579a.745.745,0,0,1,.613-.732,10.722,10.722,0,0,1,3.725,0,.745.745,0,0,1,.613.732v1.543a8.507,8.507,0,0,1,1.678.7l1.091-1.091a.743.743,0,0,1,.952-.084,10.592,10.592,0,0,1,2.633,2.633.744.744,0,0,1-.084.952L214.7,50.319A8.514,8.514,0,0,1,215.4,52h1.543a.744.744,0,0,1,.732.613,10.646,10.646,0,0,1,0,3.725.744.744,0,0,1-.732.613H215.4a8.514,8.514,0,0,1-.7,1.677l1.091,1.091a.744.744,0,0,1,.084.952,10.592,10.592,0,0,1-2.633,2.633.745.745,0,0,1-.952-.084L211.2,62.126a8.509,8.509,0,0,1-1.678.7v1.543a.744.744,0,0,1-.613.732,10.664,10.664,0,0,1-3.725,0,.744.744,0,0,1-.613-.732V62.821a8.508,8.508,0,0,1-1.678-.7L201.8,63.217a.745.745,0,0,1-.952.084,10.593,10.593,0,0,1-2.633-2.633.744.744,0,0,1,.084-.952l1.091-1.091a8.516,8.516,0,0,1-.7-1.677h-1.543a.744.744,0,0,1-.732-.613,10.646,10.646,0,0,1,0-3.725A.744.744,0,0,1,197.157,52Zm.644,3.464h1.475a.744.744,0,0,1,.727.584,7.034,7.034,0,0,0,.952,2.3.743.743,0,0,1-.1.928l-1.044,1.044a9.128,9.128,0,0,0,1.4,1.4l1.044-1.044a.744.744,0,0,1,.928-.1,7.026,7.026,0,0,0,2.3.953.744.744,0,0,1,.584.727V63.72a9.254,9.254,0,0,0,1.975,0V62.245a.744.744,0,0,1,.584-.727,7.026,7.026,0,0,0,2.3-.953.742.742,0,0,1,.928.1l1.044,1.044a9.13,9.13,0,0,0,1.4-1.4l-1.044-1.044a.743.743,0,0,1-.1-.928,7.031,7.031,0,0,0,.952-2.3.744.744,0,0,1,.727-.584H216.3a9.23,9.23,0,0,0,0-1.976h-1.475a.744.744,0,0,1-.727-.584,7.035,7.035,0,0,0-.952-2.3.743.743,0,0,1,.1-.928l1.044-1.044a9.127,9.127,0,0,0-1.4-1.4l-1.044,1.044a.742.742,0,0,1-.928.1,7.026,7.026,0,0,0-2.3-.953.744.744,0,0,1-.584-.727V45.224a9.252,9.252,0,0,0-1.975,0V46.7a.744.744,0,0,1-.584.727,7.026,7.026,0,0,0-2.3.953.744.744,0,0,1-.928-.1l-1.044-1.044a9.128,9.128,0,0,0-1.4,1.4l1.044,1.044a.743.743,0,0,1,.1.928A7.032,7.032,0,0,0,200,52.9a.744.744,0,0,1-.727.584H197.8A9.23,9.23,0,0,0,197.8,55.46Z" transform="translate(-192.49 -39.962)"/><path class="a" d="M111.672,209.527h.85a2.937,2.937,0,0,1,.316-.758l-.6-.6a.744.744,0,1,1,1.052-1.052l.6.6a2.944,2.944,0,0,1,.758-.316v-.85a.744.744,0,1,1,1.488,0v.85a2.943,2.943,0,0,1,.758.316l.6-.6a.744.744,0,0,1,1.052,1.052l-.6.6a2.937,2.937,0,0,1,.316.758h.85a.744.744,0,1,1,0,1.488h-.85a2.938,2.938,0,0,1-.316.758l.6.6a.744.744,0,0,1-1.052,1.052l-.6-.6a2.945,2.945,0,0,1-.758.316v.85a.744.744,0,1,1-1.488,0v-.85a2.943,2.943,0,0,1-.758-.316l-.6.6a.744.744,0,0,1-1.052-1.052l.6-.6a2.938,2.938,0,0,1-.316-.758h-.85a.744.744,0,1,1,0-1.488Zm3.72,2.232a1.488,1.488,0,1,0-1.488-1.488A1.488,1.488,0,0,0,115.392,211.759Z" transform="translate(-87.28 -188.271)"/><path class="a" d="M108.52,116.407a2.481,2.481,0,0,1-.179.432l.4.4a.744.744,0,0,1-1.052,1.052l-.4-.4a2.507,2.507,0,0,1-.431.178v.571a.744.744,0,0,1-1.488,0v-.571a2.49,2.49,0,0,1-.431-.178l-.4.4a.744.744,0,0,1-1.052-1.052l.4-.4a2.471,2.471,0,0,1-.179-.432h-.569a.744.744,0,1,1,0-1.488h.569a2.471,2.471,0,0,1,.179-.432l-.4-.4a.744.744,0,0,1,1.052-1.052l.4.4a2.5,2.5,0,0,1,.431-.178v-.571a.744.744,0,0,1,1.488,0v.571a2.5,2.5,0,0,1,.431.178l.4-.4a.744.744,0,0,1,1.052,1.052l-.4.4a2.473,2.473,0,0,1,.179.432h.569a.744.744,0,0,1,0,1.488h-.569Zm-2.137-1.751a1.042,1.042,0,1,0,.772,1.007A1.042,1.042,0,0,0,106.383,114.656Z" transform="translate(-76.522 -102.437)"/><path class="a" d="M269.363,111.941a4.836,4.836,0,1,1-4.836,4.836A4.836,4.836,0,0,1,269.363,111.941Zm0,8.184a3.348,3.348,0,1,0-3.348-3.348A3.348,3.348,0,0,0,269.363,120.126Z" transform="translate(-254.892 -102.446)"/></g></svg>