<svg xmlns="http://www.w3.org/2000/svg" width="28" height="26" viewBox="0 0 28 26"><defs><style>.a{fill:#2ca5e0;}</style></defs><g transform="translate(0 -19.401)"><path class="a" d="M.495,31.867l6.452,2.568L9.444,43a.742.742,0,0,0,1.206.387l3.6-3.127a1.02,1.02,0,0,1,1.308-.039l6.486,5.023a.748.748,0,0,0,1.191-.49l4.752-24.377a.779.779,0,0,0-1.018-.922L.487,30.35A.832.832,0,0,0,.495,31.867Zm8.547,1.2L21.65,24.786c.227-.148.46.178.265.371L11.509,35.473a2.355,2.355,0,0,0-.669,1.377l-.354,2.8a.322.322,0,0,1-.636.049L8.487,34.592A1.4,1.4,0,0,1,9.041,33.069Z" transform="translate(0 0)"/></g></svg>