<svg xmlns="http://www.w3.org/2000/svg" width="28" height="18" viewBox="0 0 28 18"><defs><style>.a{fill:#5c81b3;}</style></defs><g transform="translate(0 -117.748)"><path class="a" d="M27.852,134a2.262,2.262,0,0,0-.095-.205,16.008,16.008,0,0,0-2.784-3.63l-.029-.033-.015-.016-.015-.016H24.9q-.933-1-1.181-1.347a1.391,1.391,0,0,1-.2-1.331,12.61,12.61,0,0,1,1.312-2.152q.6-.871.947-1.4,2.522-3.778,2.187-4.829l-.087-.164a.834.834,0,0,0-.452-.271,2.044,2.044,0,0,0-.933-.041l-4.2.033a.486.486,0,0,0-.292.008l-.19.049-.073.041-.058.049a.687.687,0,0,0-.16.172,1.17,1.17,0,0,0-.145.287,28.451,28.451,0,0,1-1.56,3.7q-.539,1.019-.992,1.766a8.437,8.437,0,0,1-.758,1.1,5.563,5.563,0,0,1-.554.567q-.248.214-.379.181c-.088-.022-.17-.044-.248-.066a1.055,1.055,0,0,1-.328-.4,1.974,1.974,0,0,1-.168-.641q-.044-.386-.051-.665t.007-.789q.015-.509.015-.69,0-.624.022-1.355t.037-1.158q.015-.427.015-.9a4.266,4.266,0,0,0-.051-.747,2.79,2.79,0,0,0-.153-.526.865.865,0,0,0-.3-.394,1.583,1.583,0,0,0-.488-.222,8.65,8.65,0,0,0-1.968-.213,8.555,8.555,0,0,0-3.484.394,2.021,2.021,0,0,0-.554.493q-.262.361-.073.394a1.734,1.734,0,0,1,1.239.706l.088.2a3.437,3.437,0,0,1,.2.756,8.546,8.546,0,0,1,.131,1.2,14.4,14.4,0,0,1,0,2.053q-.073.854-.138,1.331a2.923,2.923,0,0,1-.2.772,3.4,3.4,0,0,1-.175.361.268.268,0,0,1-.073.082.984.984,0,0,1-.394.082.868.868,0,0,1-.5-.23,3.7,3.7,0,0,1-.6-.632,8.523,8.523,0,0,1-.707-1.125q-.393-.723-.816-1.708l-.233-.476q-.219-.46-.6-1.339t-.671-1.7a1.079,1.079,0,0,0-.35-.525l-.073-.049a.969.969,0,0,0-.233-.14,1.416,1.416,0,0,0-.335-.107l-3.994.033a.952.952,0,0,0-.831.312l-.058.1a.589.589,0,0,0-.044.263,1.451,1.451,0,0,0,.088.443q.875,2.316,1.9,4.468t1.786,3.466q.758,1.314,1.545,2.48T6.363,131.6q.255.329.4.493l.365.394a8.961,8.961,0,0,0,1.028.944,17.427,17.427,0,0,0,1.5,1.084,7.652,7.652,0,0,0,1.917.87,5.924,5.924,0,0,0,2.128.271H15.38a1.1,1.1,0,0,0,.773-.362l.058-.082a1.169,1.169,0,0,0,.109-.3,1.869,1.869,0,0,0,.051-.452,6.08,6.08,0,0,1,.095-1.273,3.646,3.646,0,0,1,.248-.854,2.106,2.106,0,0,1,.313-.484,1.316,1.316,0,0,1,.248-.238.9.9,0,0,1,.116-.057.852.852,0,0,1,.824.255,5.141,5.141,0,0,1,.889.953q.416.567,1,1.273a7.233,7.233,0,0,0,1.02,1.051l.291.2a3.356,3.356,0,0,0,.758.362,1.46,1.46,0,0,0,.816.082l3.732-.066a1.536,1.536,0,0,0,.86-.205.791.791,0,0,0,.365-.452,1.429,1.429,0,0,0,.007-.559A2.27,2.27,0,0,0,27.852,134Z" transform="translate(0 0)"/></g></svg>