<svg xmlns="http://www.w3.org/2000/svg" xmlns:xlink="http://www.w3.org/1999/xlink" width="62" height="62" viewBox="0 0 62 62"><defs><style>.a{fill:url(#a);}.b{filter:url(#b);}</style><linearGradient id="a" y1="0.5" x2="1" y2="0.5" gradientUnits="objectBoundingBox"><stop offset="0" stop-color="#1663d5"/><stop offset="1" stop-color="#2272e8"/></linearGradient><filter id="b" x="0" y="0" width="62" height="62" filterUnits="userSpaceOnUse"><feOffset dy="3" input="SourceAlpha"/><feGaussianBlur stdDeviation="3" result="c"/><feFlood flood-opacity="0.161"/><feComposite operator="in" in2="c"/><feComposite in="SourceGraphic"/></filter></defs><g class="b" transform="matrix(1, 0, 0, 1, 0, 0)"><path class="a" d="M22,0A22,22,0,1,0,44,22,22.025,22.025,0,0,0,22,0ZM33.413,22.606l-16.133,11a.735.735,0,0,1-.413.128A.734.734,0,0,1,16.133,33V11a.734.734,0,0,1,1.147-.606l16.133,11a.733.733,0,0,1,0,1.211Z" transform="translate(9 6)"/></g></svg>