<svg xmlns="http://www.w3.org/2000/svg" width="44" height="44" viewBox="0 0 44 44"><defs><style>.a{fill:#1663d5;}</style></defs><g transform="translate(-0.001)"><path class="a" d="M5.5,6.875v-5.5a1.375,1.375,0,0,1,2.75,0v5.5a1.375,1.375,0,0,1-2.75,0ZM28.876,8.25a1.374,1.374,0,0,0,1.375-1.375v-5.5a1.375,1.375,0,0,0-2.75,0v5.5A1.375,1.375,0,0,0,28.876,8.25ZM44,33A11,11,0,1,1,33,22,11,11,0,0,1,44,33Zm-2.75,0A8.25,8.25,0,1,0,33,41.25,8.259,8.259,0,0,0,41.251,33ZM11,16.5H5.5V22H11ZM5.5,30.25H11v-5.5H5.5ZM13.751,22h5.5V16.5h-5.5Zm0,8.25h5.5v-5.5h-5.5Zm-11,2.476V13.75H33v5.5h2.75V8.524A3,3,0,0,0,32.773,5.5H31.626V6.875a2.75,2.75,0,1,1-5.5,0V5.5H9.626V6.875a2.75,2.75,0,1,1-5.5,0V5.5H2.981A3,3,0,0,0,0,8.524v24.2a3,3,0,0,0,2.98,3.024H19.251V33H2.981A.26.26,0,0,1,2.751,32.726ZM27.5,22V16.5H22V22Zm9.625,11H33V28.875a1.375,1.375,0,0,0-2.75,0v5.5a1.374,1.374,0,0,0,1.375,1.375h5.5a1.375,1.375,0,0,0,0-2.75Z"/></g></svg>