<svg xmlns="http://www.w3.org/2000/svg" width="44" height="44" viewBox="0 0 44 44"><defs><style>.a{fill:#1663d5;}</style></defs><g transform="translate(-0.353)"><g transform="translate(18.665 1.43)"><path class="a" d="M232.267,16.768H211.3a.946.946,0,0,0-.946.946v7.371l1.049-.651a2.622,2.622,0,0,1,.843-.339V18.66h19.07V32.3h-19.07V30.1l-1.892,1.175v1.979a.946.946,0,0,0,.946.946h20.962a.946.946,0,0,0,.946-.946V17.714A.946.946,0,0,0,232.267,16.768Z" transform="translate(-210.359 -16.768)"/></g><g transform="translate(22.358 6.404)"><path class="a" d="M260.078,75.383a.728.728,0,0,0-1.022-.121L255.8,77.831a2.613,2.613,0,0,1,.949,1.1l3.21-2.531A.728.728,0,0,0,260.078,75.383Z" transform="translate(-255.798 -75.106)"/></g><g transform="translate(8.043 0)"><g transform="translate(0 0)"><circle class="a" cx="2.723" cy="2.723" r="2.723"/></g></g><g transform="translate(3.994 6.313)"><path class="a" d="M60.875,78.369a1.314,1.314,0,0,0-1.809-.423L56.405,79.6c-.011-2.206-.005-1.035-.012-2.456a3.116,3.116,0,0,0-3.109-3.093H51.992c-1.1,2.864-.748,1.8-1.686,4.231l.394-1.716a.548.548,0,0,0-.056-.378l-.534-.971.474-.862a.193.193,0,0,0-.169-.286h-1.3a.193.193,0,0,0-.169.286l.475.864-.535.973a.548.548,0,0,0-.057.371l.341,1.72-1.632-4.231H46.217a3.116,3.116,0,0,0-3.109,3.093l-.049,9.651a1.314,1.314,0,0,0,1.307,1.32h.007a1.314,1.314,0,0,0,1.314-1.307l.049-9.651v0a.261.261,0,0,1,.521,0V90.828a4.383,4.383,0,0,1,3.153,1.144V86.638h.681v6.119a4.4,4.4,0,0,1,.123,4.749,4.786,4.786,0,0,1,1.2.159,4.395,4.395,0,0,1,1.828-.949c0-23.817-.029-9.091-.029-19.56a.275.275,0,0,1,.55,0c0,.921.019,3.8.024,4.8A1.314,1.314,0,0,0,55.8,83.069l4.656-2.891A1.314,1.314,0,0,0,60.875,78.369Z" transform="translate(-43.06 -74.048)"/></g><g transform="translate(34.443 24.868)"><circle class="a" cx="2.882" cy="2.882" r="2.882"/></g><g transform="translate(33.664 31.672)"><path class="a" d="M396.957,370.681a3.3,3.3,0,0,0-3.291-3.274h-7.228a4.393,4.393,0,0,1-.153,4.291,4.819,4.819,0,0,1,3.849,2.208h3.46v-3.191a.291.291,0,0,1,.582-.02h0l.016,3.211h2.781Z" transform="translate(-386.284 -367.407)"/></g><g transform="translate(19.206 31.58)"><path class="a" d="M225.152,369.075a4.376,4.376,0,0,1,.5-2.039h-6.417a4.394,4.394,0,0,1-.173,4.243,4.8,4.8,0,0,1,3.435,1.472,4.764,4.764,0,0,1,3.311-1.364A4.4,4.4,0,0,1,225.152,369.075Z" transform="translate(-219.064 -367.036)"/></g><g transform="translate(20.231 24.836)"><path class="a" d="M233.9,288.655a2.882,2.882,0,1,0,2.882,2.882A2.882,2.882,0,0,0,233.9,288.655Z" transform="translate(-231.015 -288.655)"/></g><g transform="translate(0.353 31.64)"><g transform="translate(0)"><path class="a" d="M10.828,369a4.377,4.377,0,0,1,.461-1.959c-.124-.006.4,0-7.63,0a3.3,3.3,0,0,0-3.291,3.274l-.016,3.257H3.134l.016-3.243a.291.291,0,0,1,.582,0v3.241h3.9a4.79,4.79,0,0,1,3.857-2.251A4.37,4.37,0,0,1,10.828,369Z" transform="translate(-0.353 -367.033)"/></g></g><g transform="translate(4.499 24.836)"><path class="a" d="M51.865,288.655a2.882,2.882,0,1,0,2.882,2.882A2.882,2.882,0,0,0,51.865,288.655Z" transform="translate(-48.983 -288.655)"/></g><g transform="translate(8.584 37.393)"><path class="a" d="M122.415,437.86a3.3,3.3,0,0,0-3.291-3.274h-7.29a3.381,3.381,0,0,0-3.386,3.274l-.023-.076a3.3,3.3,0,0,0-3.291-3.274h-7.29a3.381,3.381,0,0,0-3.386,3.274l-.016,3.332h2.781l.016-3.318a.251.251,0,0,1,.5,0v3.317h7.366V437.8a.269.269,0,0,1,.537,0l.016,3.319h5.553l.016-3.243h0a.251.251,0,0,1,.5,0v3.241H119.1v-3.241a.269.269,0,0,1,.537,0l.016,3.243h2.781Z" transform="translate(-94.442 -434.51)"/></g><g transform="translate(12.537 30.608)"><circle class="a" cx="2.916" cy="2.916" r="2.916"/></g><g transform="translate(26.854 30.684)"><circle class="a" cx="2.916" cy="2.916" r="2.916"/></g></g></svg>