<svg xmlns="http://www.w3.org/2000/svg" width="88" height="88" viewBox="0 0 88 88"><defs><style>.a{fill:#fc9416;}.b{fill:none;}.c{fill:#fff;}</style></defs><g transform="translate(-555 -492)"><circle class="a" cx="44" cy="44" r="44" transform="translate(555 492)"/><g transform="translate(-4 60)"><rect class="b" width="44" height="44" transform="translate(581 454)"/><g transform="translate(581 424.952)"><g transform="translate(0 35.048)"><g transform="translate(0 0)"><path class="c" d="M36.4,35.049h0a1.561,1.561,0,0,0-1.1.448,1.525,1.525,0,0,0-.462,1.1V59.752A1.563,1.563,0,0,0,36.405,61.3c3.655.009,9.779.758,14,5.106V42.166a1.462,1.462,0,0,0-.216-.782C46.726,35.892,40.062,35.057,36.4,35.049Z" transform="translate(-29.686 -35.049)"/><path class="c" d="M172.327,59.751V36.592a1.525,1.525,0,0,0-.462-1.1,1.561,1.561,0,0,0-1.1-.448h0c-3.663.009-10.326.843-13.794,6.335a1.462,1.462,0,0,0-.216.782V66.4c4.225-4.348,10.348-5.1,14-5.106A1.563,1.563,0,0,0,172.327,59.751Z" transform="translate(-133.473 -35.048)"/><path class="c" d="M188.458,71.8h-1.139V91.488a4.017,4.017,0,0,1-4,4.008c-3.1.007-8.212.614-11.833,4.04,6.262-1.533,12.862-.536,16.624.321a1.57,1.57,0,0,0,1.922-1.53V73.371A1.572,1.572,0,0,0,188.458,71.8Z" transform="translate(-146.028 -66.897)"/><path class="c" d="M2.709,91.488V71.8H1.57A1.572,1.572,0,0,0,0,73.371V98.326a1.57,1.57,0,0,0,1.922,1.53C5.683,99,12.284,98,18.546,99.535,14.925,96.109,9.813,95.5,6.713,95.5A4.017,4.017,0,0,1,2.709,91.488Z" transform="translate(0 -66.897)"/></g></g></g></g></g></svg>