<svg xmlns="http://www.w3.org/2000/svg" width="88" height="88" viewBox="0 0 88 88"><defs><style>.a{fill:#fc9416;}.b{fill:none;}.c{fill:#fff;}</style></defs><g transform="translate(-555 -492)"><path class="a" d="M44,0A44,44,0,1,1,0,44,44,44,0,0,1,44,0Z" transform="translate(555 492)"/><g transform="translate(-278 78)"><rect class="b" width="44" height="44" transform="translate(855 436)"/><g transform="translate(855 432.652)"><path class="c" d="M26.552,12.87a8.231,8.231,0,0,1,3.721,6.1A6.282,6.282,0,0,0,33,19.592a6.539,6.539,0,0,0,6.453-6.622,6.452,6.452,0,1,0-12.9-.1ZM22.325,26.43a6.624,6.624,0,1,0-6.454-6.622A6.539,6.539,0,0,0,22.325,26.43Zm2.737.451H19.586a8.383,8.383,0,0,0-8.262,8.48v6.872l.017.108.461.148a36.728,36.728,0,0,0,11.234,1.859,22.57,22.57,0,0,0,9.809-1.89l.431-.224h.046V35.361A8.38,8.38,0,0,0,25.062,26.881Zm10.676-6.837H30.3a8.26,8.26,0,0,1-2.455,5.685,10.044,10.044,0,0,1,7.013,9.642v2.118a21.771,21.771,0,0,0,8.66-1.867l.431-.224H44V28.523A8.382,8.382,0,0,0,35.738,20.044ZM11,19.594a6.291,6.291,0,0,0,3.432-1.022,8.239,8.239,0,0,1,3-5.227c.007-.124.018-.247.018-.372A6.539,6.539,0,0,0,11,6.35a6.539,6.539,0,0,0-6.453,6.623A6.539,6.539,0,0,0,11,19.594Zm5.8,6.136a8.264,8.264,0,0,1-2.453-5.653c-.2-.015-.4-.032-.606-.032H8.262A8.382,8.382,0,0,0,0,28.523V35.4l.017.106.461.149a37.855,37.855,0,0,0,9.3,1.795V35.371A10.046,10.046,0,0,1,16.8,25.729Z"/></g></g></g></svg>