<svg xmlns="http://www.w3.org/2000/svg" width="88" height="88" viewBox="0 0 88 88"><defs><style>.a{fill:#fc9416;}.b{fill:none;}.c{fill:#fff;}</style></defs><g transform="translate(-555 -492)"><path class="a" d="M44,0A44,44,0,1,1,0,44,44,44,0,0,1,44,0Z" transform="translate(555 492)"/><g transform="translate(-551 78)"><rect class="b" width="44" height="44" transform="translate(1128 436)"/><g transform="translate(1127.174 436)"><path class="c" d="M1.515,12.915a5.861,5.861,0,0,1,5.928-5.8,5.8,5.8,0,1,1,0,11.59A5.858,5.858,0,0,1,1.515,12.915Zm26.209,5.424A2.036,2.036,0,0,0,24.965,19l-3.95,6.344-5.57-3.047c-2.5-1.511-3.725-2.227-7.444-2.227H6.87C-.343,20.891.909,26.549.909,26.549L1.784,44l12.7-.138-.5-17.313,6.769,3.146a2.039,2.039,0,0,0,2.7-.694L28.4,21.04A1.946,1.946,0,0,0,27.724,18.339Zm-16.034-.6a6.734,6.734,0,0,1-1.444.934v.914a10.049,10.049,0,0,1,1.444.262ZM44.826,0H10.246V7.16a6.653,6.653,0,0,1,1.444.933V1.411h31.7V22.644H28.122l-.878,1.412H44.826ZM21.094,24.056l.883-1.412H17.361l2.578,1.412ZM33.308,9.745l-.7-.391-4.838,8.263.7.394Z" transform="translate(0)"/></g></g></g></svg>