<svg xmlns="http://www.w3.org/2000/svg" width="44" height="44" viewBox="0 0 44 44"><defs><style>.a{fill:#414849;}</style></defs><path class="a" d="M22,0A22,22,0,1,0,44,22,22,22,0,0,0,22,0Zm.944,42.065V38.2a.944.944,0,0,0-1.888,0v3.87A20.1,20.1,0,0,1,1.935,22.944H5.8a.944.944,0,0,0,0-1.888H1.935A20.1,20.1,0,0,1,21.056,1.935V5.8a.944.944,0,0,0,1.888,0V1.935A20.1,20.1,0,0,1,42.065,21.056H38.2a.944.944,0,0,0,0,1.888h3.879A20.1,20.1,0,0,1,22.944,42.065Z"/><g transform="translate(20.969 11.02)"><path class="a" d="M189.513,114.349l-9.122-9.275V95.435a.955.955,0,1,0-1.91,0v10.03a.955.955,0,0,0,.277.669l9.39,9.552a.956.956,0,1,0,1.366-1.337Z" transform="translate(-178.48 -94.48)"/></g></svg>