<svg xmlns="http://www.w3.org/2000/svg" width="44" height="38" viewBox="0 0 44 38"><defs><style>.a,.b{fill:#414849;}.b{stroke:#414849;}.c{stroke:none;}.d{fill:none;}</style></defs><path class="a" d="M39.814,0H10.848c-.361,0-.361,1.3,0,1.3H39.814a2.874,2.874,0,0,1,2.88,2.861V27.268a2.874,2.874,0,0,1-2.88,2.861H4.186a2.873,2.873,0,0,1-2.879-2.861V4.16A2.874,2.874,0,0,1,4.186,1.3h8.181c.361,0-.673-1.3-1.034-1.3H4.186A4.178,4.178,0,0,0,0,4.16V27.268a4.178,4.178,0,0,0,4.186,4.16H15.694l-1.28,6.156H29.586l-1.28-6.156H39.814A4.178,4.178,0,0,0,44,27.268V4.16A4.178,4.178,0,0,0,39.814,0ZM28.219,37.585H15.781l1.28-6.156H26.94Zm0,0" transform="translate(0)"/><path class="a" d="M77.457,61.885V41.265a.708.708,0,0,0-.7-.715h-35.5a.707.707,0,0,0-.7.715v21.7a.658.658,0,0,0,.651.666h35.6a.658.658,0,0,0,.651-.666V60.672a.651.651,0,1,0-1.3,0V62.3H41.861V41.882H76.155V61.65C76.155,62.018,77.457,62.253,77.457,61.885Z" transform="translate(-37.007 -37)"/><path class="a" d="M249.62,319.814a.666.666,0,1,0-.092.85A.672.672,0,0,0,249.62,319.814Zm0,0" transform="translate(-227.067 -291.818)"/><g class="b" transform="translate(7 37)"><rect class="c" width="30" height="1" rx="0.5"/><rect class="d" x="0.5" y="0.5" width="29"/></g></svg>