<svg xmlns="http://www.w3.org/2000/svg" width="222" height="32" viewBox="0 0 222 32"><defs><style>.a{fill:#fff;}.b{fill:#1663d5;}</style></defs><g transform="translate(-345.3 -441.799)"><g transform="translate(345.3 441.799)"><g transform="translate(196.15 0)"><path class="a" d="M1265.142,450.129a4.165,4.165,0,0,0,.022-8.33,4.165,4.165,0,0,0-.022,8.33Z" transform="translate(-1252.199 -441.799)"/><path class="a" d="M1247.5,467.5a1.927,1.927,0,0,0-.358.046,6.055,6.055,0,0,0-.627.114c-5.688,1.35-9.562,4.919-12.025,10.205-1.276,2.723-2.53,5.446-3.9,8.123-1.814,3.57-4.344,6.224-8.24,7.345a3.007,3.007,0,0,0-.65.412c5.62-.183,10.211-1.991,13.189-7a49.987,49.987,0,0,0,3.135-6.773c2.015-4.919,4.725-9.244,9.293-12.1C1247.429,467.8,1247.653,467.752,1247.5,467.5Z" transform="translate(-1221.7 -461.745)"/><path class="b" d="M1233.2,479.452c.739-1.478,1.276-2.665,1.948-3.784a1.346,1.346,0,0,0-.112-1.7,17.553,17.553,0,0,0-4.591-4.5,15.51,15.51,0,0,0-7.345-2.665C1228.026,469.666,1230.982,474.1,1233.2,479.452Z" transform="translate(-1222.786 -461.035)"/></g><path class="b" d="M352.712,474.874v5.912c0,2.53.022,4.187.09,4.994a3.607,3.607,0,0,0,.6,2.217c.56.493,1.9.739,4.053.739,2.038,0,3.337-.313,3.919-.94a3.46,3.46,0,0,0,.873-2.015c.045-.336.157-.493.358-.493.179,0,.269.179.269.56a14.529,14.529,0,0,1-.493,3.852,1.056,1.056,0,0,1-.806.829,6.888,6.888,0,0,1-1.3.067c-1.791,0-3.672-.022-5.665-.09s-3.359-.09-4.1-.09c-.2,0-.829.022-1.9.045-1.052.022-1.836.045-2.329.045q-.672,0-.672-.336c0-.157.246-.246.739-.291.336-.045.672-.067,1.008-.09.515-.112.828-.717.963-1.836.112-.873.157-3.247.157-7.143V474.9c0-4.008-.022-6.382-.067-7.1a2,2,0,0,0-.739-1.679,3.6,3.6,0,0,0-1.814-.336c-.381,0-.56-.09-.56-.291s.246-.291.739-.291c.582,0,1.433.022,2.553.045s1.791.045,2.038.045c.224,0,.918-.022,2.1-.045s1.993-.045,2.463-.045.694.09.694.291-.2.291-.6.291a7.538,7.538,0,0,0-1.3.09c-.761.134-1.164.761-1.232,1.9C352.734,468.514,352.712,470.865,352.712,474.874Z" transform="translate(-345.3 -459.399)"/><path class="b" d="M440.056,480.63v-5.912c0-4.008-.022-6.382-.067-7.1q-.1-1.612-1.142-1.881a5.019,5.019,0,0,0-1.164-.134c-.381,0-.582-.112-.582-.336q0-.269.806-.269c.448,0,1.209.022,2.306.045,1.075.022,1.769.045,2.06.045.246,0,.873-.022,1.881-.045S445.9,465,446.371,465s.694.09.694.269q0,.336-.47.336a6.065,6.065,0,0,0-1.052.09c-.761.134-1.164.761-1.232,1.9-.045.739-.067,3.113-.067,7.1v5.912c0,4.008.045,6.449.134,7.345.09.985.537,1.523,1.321,1.635a12.57,12.57,0,0,0,1.7.134q.537,0,.537.269c0,.224-.224.336-.627.336-.851,0-1.881-.022-3.113-.045-1.209-.022-1.926-.045-2.127-.045s-.829.022-1.9.045c-1.052.022-1.836.045-2.329.045q-.672,0-.672-.336c0-.157.246-.246.739-.291.336-.045.672-.067,1.008-.09.537-.112.851-.672.963-1.657C439.989,486.945,440.056,484.5,440.056,480.63Z" transform="translate(-416.543 -459.244)"/><path class="b" d="M506.041,469.755l.358,14.385c.067,2.287.448,3.545,1.164,3.8a10.423,10.423,0,0,0,1.3.16q1.008.137,1.008.343c0,.229-.246.343-.761.343-.851,0-1.724-.023-2.642-.046s-1.411-.046-1.5-.046c.022,0-.4.023-1.276.046s-1.657.046-2.351.046q-.739,0-.739-.343c0-.16.291-.252.873-.3.4-.046.784-.092,1.164-.137a1.325,1.325,0,0,0,.829-1.1,20.036,20.036,0,0,0,.2-3.156l.291-20.285c.022-.778.157-1.166.425-1.166.179,0,.582.343,1.232,1.052q2.754,3.019,10.39,11,3.426,3.636,7.367,7.8h.157l-.336-15.368a11.3,11.3,0,0,0-.134-1.738,1.8,1.8,0,0,0-1.008-1.326,5.2,5.2,0,0,0-1.769-.206c-.358,0-.537-.092-.537-.3s.291-.3.873-.3c.672,0,1.478.023,2.418.046s1.478.046,1.635.046c.022,0,.4-.023,1.164-.046s1.456-.046,2.1-.046c.515,0,.761.091.761.3s-.2.3-.6.3c-1.12,0-1.791.366-2.038,1.121a8.535,8.535,0,0,0-.2,1.875L525.5,488.12c-.022.709-.157,1.052-.425,1.052q-.369,0-1.142-.755-3.224-3.259-9.9-10.063c-1.523-1.532-3.225-3.339-5.128-5.443-.963-1.075-1.9-2.127-2.844-3.179h-.022Z" transform="translate(-465.842 -457.709)"/><path class="b" d="M667.46,483.219v3.776c0,.664-.134,1.076-.425,1.236-1.9,1.03-4.591,1.533-8.061,1.533q-6.65,0-10.816-3.181-4.669-3.57-4.658-10.251a13.65,13.65,0,0,1,1.769-6.956,11.623,11.623,0,0,1,4.053-4.256,16.92,16.92,0,0,1,9.024-2.22,30.286,30.286,0,0,1,5.934.549,20.891,20.891,0,0,0,2.642.366q.47.034.47.412a6.4,6.4,0,0,0-.112,1.327c-.09,1.1-.112,2.517-.112,4.279,0,.481-.112.709-.358.709-.179,0-.291-.137-.336-.435a5.038,5.038,0,0,0-1.142-2.837,7.594,7.594,0,0,0-2.687-1.739,12.266,12.266,0,0,0-4.792-.915,9.879,9.879,0,0,0-6.651,2.128q-3.09,2.643-3.09,8.375a13.394,13.394,0,0,0,3.225,9.244A10.753,10.753,0,0,0,659.78,488c1.859,0,2.933-.229,3.247-.709a1.485,1.485,0,0,0,.224-.915v-3.2c0-1.968-.022-3.3-.045-4.027a1.768,1.768,0,0,0-1.433-1.945,6.476,6.476,0,0,0-1.3-.091c-.336,0-.493-.092-.493-.275,0-.229.224-.343.694-.343.649,0,1.545.023,2.71.046s1.881.046,2.15.046c.336,0,.985-.023,1.926-.046s1.612-.046,1.993-.046q.672,0,.672.343c0,.183-.134.275-.381.275a5.548,5.548,0,0,0-.963.091c-.806.16-1.254.8-1.3,1.945C667.483,479.833,667.46,481.206,667.46,483.219Z" transform="translate(-576.759 -458.189)"/><path class="b" d="M774.559,479.778v-4.9c0-4.008-.022-6.382-.067-7.1a1.812,1.812,0,0,0-1.433-1.9,6.614,6.614,0,0,0-1.3-.09c-.381,0-.56-.09-.56-.291s.246-.291.739-.291c.649,0,1.568.022,2.732.045s1.9.045,2.172.045c.246,0,.9-.022,1.926-.045s1.769-.045,2.194-.045c.493,0,.739.112.739.314s-.179.314-.537.314a5.477,5.477,0,0,0-.963.09c-.761.134-1.164.761-1.232,1.9q-.067,1.108-.067,7.121v4.7q0,6.113,2.62,8.263a6.366,6.366,0,0,0,4.187,1.366,6.277,6.277,0,0,0,4.635-1.814,6.633,6.633,0,0,0,1.679-3.56,30.553,30.553,0,0,0,.269-4.77v-4.187q0-6.012-.067-7.121a1.812,1.812,0,0,0-1.433-1.9,6.051,6.051,0,0,0-1.209-.09c-.381,0-.56-.09-.56-.314,0-.2.224-.313.694-.313.985,0,2.262.022,3.852.09.067,0,.582-.022,1.568-.045s1.724-.045,2.239-.045c.47,0,.694.09.694.291s-.2.291-.6.291a5.48,5.48,0,0,0-.963.09c-.761.134-1.164.761-1.232,1.9-.045.739-.067,3.113-.067,7.1v3.583a23.124,23.124,0,0,1-.537,5.531,8.592,8.592,0,0,1-2.642,4.568,10.36,10.36,0,0,1-6.986,2.418c-3.269,0-5.755-.761-7.434-2.306C775.544,486.876,774.559,483.9,774.559,479.778Z" transform="translate(-675.878 -459.399)"/><path class="b" d="M902.559,479.25H895.08c-.134,0-.224.091-.291.274l-1.814,4.895a6.565,6.565,0,0,0-.493,2.081c0,.709.448,1.052,1.344,1.052h.493c.336,0,.493.092.493.275,0,.229-.179.343-.56.343-.358,0-.963-.023-1.791-.046s-1.433-.046-1.769-.046c-1.948.069-3.269.091-3.964.091-.425,0-.627-.114-.627-.343q0-.274.4-.275a7.547,7.547,0,0,0,1.03-.069,2.6,2.6,0,0,0,1.747-.961,8.086,8.086,0,0,0,1.1-2.127l8.42-21.524q.537-1.372.94-1.372c.246,0,.515.366.829,1.1q3.09,7.96,8.308,21.066c.941,2.264,1.926,3.5,2.956,3.728a6.427,6.427,0,0,0,1.411.137c.291,0,.425.092.425.274q0,.206-.336.275a7.063,7.063,0,0,1-1.209.069c-2.777,0-4.882-.023-6.337-.069q-1.008-.034-1.008-.275c0-.183.157-.274.47-.3.358-.114.448-.366.291-.778l-2.687-7.251A.275.275,0,0,0,902.559,479.25Zm-6.807-1.716h6.18c.157,0,.2-.069.157-.206l-3.023-8.463c-.045-.206-.09-.3-.157-.3-.09,0-.157.092-.2.3l-3.09,8.417C895.572,477.466,895.617,477.534,895.751,477.534Z" transform="translate(-765.063 -457.088)"/><path class="a" d="M1019.331,489.672a11.94,11.94,0,0,1-4.9-.892,1.126,1.126,0,0,1-.627-1.166c0-1.235.045-2.721.157-4.482q.067-.892.4-.892c.224,0,.336.183.336.572a6.247,6.247,0,0,0,.291,1.738,4.482,4.482,0,0,0,4.792,3.453,4.566,4.566,0,0,0,3.381-1.258,3.621,3.621,0,0,0,1.1-2.63q0-2.847-3.292-5.489l-1.545-1.235c-3.314-2.653-4.971-5.352-4.971-8.119a5.834,5.834,0,0,1,2.15-4.665,8.354,8.354,0,0,1,5.6-1.807,17.91,17.91,0,0,1,4.456.572q.47.137.47.412c0-.046-.022.366-.067,1.212s-.067,1.83-.067,2.9c0,.686-.112,1.029-.358,1.029q-.336,0-.336-.618a3.7,3.7,0,0,0-.873-2.264,4.348,4.348,0,0,0-3.65-1.669,4.1,4.1,0,0,0-2.911.983,3.288,3.288,0,0,0-1.075,2.561,3.887,3.887,0,0,0,.761,2.287,13.764,13.764,0,0,0,2.8,2.653l.941.709a18.131,18.131,0,0,1,4.255,4.3,8.1,8.1,0,0,1,1.231,4.437,6.742,6.742,0,0,1-3.157,5.969A9.289,9.289,0,0,1,1019.331,489.672Z" transform="translate(-864.177 -458.097)"/><path class="a" d="M1104.3,474.8v1.478h.157q3.023-3.124,7.009-7.367c1.12-1.321,1.68-2.15,1.68-2.508,0-.381-.157-.6-.448-.672s-.448-.179-.448-.336c0-.2.179-.291.538-.291.224,0,.784.022,1.657.045s1.478.045,1.792.045c.358,0,1.008-.022,1.971-.045s1.612-.045,1.948-.045c.381,0,.56.09.56.291s-.157.291-.493.291a5.441,5.441,0,0,0-1.948.358,10.726,10.726,0,0,0-3.628,2.508q-4.971,4.837-7.233,7.233c.56.739,2.06,2.418,4.5,5.061,2.351,2.553,3.874,4.165,4.591,4.837q1.612,1.545,2.284,2.083a9.958,9.958,0,0,0,2.553,1.567,6.142,6.142,0,0,0,2.038.493c.291,0,.426.09.426.269q0,.336-.806.336h-2.911c-1.075,0-1.836-.022-2.307-.067a5.146,5.146,0,0,1-2.217-.672,12.728,12.728,0,0,1-1.948-1.5c-.672-.582-2.239-2.284-4.7-5.128q-3.426-3.964-4.1-4.9l-.358-.493h-.157v3.045c0,3.829.045,6.225.09,7.166q.1,1.646,1.209,1.814a10.7,10.7,0,0,0,1.635.134c.291,0,.426.09.426.269,0,.224-.2.336-.627.336-.716,0-1.657-.022-2.8-.045s-1.836-.045-2.038-.045-.829.022-1.9.045c-1.052.022-1.836.045-2.329.045q-.672,0-.672-.336c0-.157.246-.246.739-.291.336-.045.672-.067,1.008-.09.515-.112.828-.717.963-1.836.112-.873.157-3.247.157-7.143v-5.912c0-4.008-.022-6.382-.067-7.1a1.811,1.811,0,0,0-1.433-1.9,6.615,6.615,0,0,0-1.3-.09c-.381,0-.56-.09-.56-.291s.246-.291.739-.291c.672,0,1.568.022,2.709.045s1.792.045,1.971.045c.246,0,.873-.022,1.9-.045s1.747-.045,2.15-.045c.47,0,.694.09.694.291s-.157.291-.47.291a2.528,2.528,0,0,0-1.635.4,2.186,2.186,0,0,0-.537,1.568C1104.324,468.414,1104.3,470.788,1104.3,474.8Z" transform="translate(-928.619 -459.322)"/></g></g></svg>