<svg xmlns="http://www.w3.org/2000/svg" width="44" height="44" viewBox="0 0 44 44"><defs><style>.a{fill:#414849;}</style></defs><g transform="translate(0 -0.001)"><g transform="translate(0 0.001)"><path class="a" d="M38.637,10.466a.814.814,0,0,0,.091.005.825.825,0,0,0,.583-.242l4.447-4.447a.825.825,0,0,0-.509-1.4l-3.325-.3-.3-3.325a.825.825,0,0,0-1.4-.508L33.771,4.69a.825.825,0,0,0-.236.674l.394,3.543-.833.833A18.278,18.278,0,0,0,21.547,4.948V3.381a.825.825,0,0,0-1.649,0V4.947A18.375,18.375,0,0,0,2.391,22.454H.825a.825.825,0,1,0,0,1.649H2.391A18.375,18.375,0,0,0,19.9,41.61v1.566a.825.825,0,0,0,1.649,0V41.61A18.375,18.375,0,0,0,39.054,24.1H40.62a.825.825,0,0,0,0-1.649H39.054a18.28,18.28,0,0,0-4.792-11.549l.833-.833Zm-.5-7.812.205,2.256a.825.825,0,0,0,.747.747l2.256.205L38.425,8.783l-2.887-.321-.321-2.887Zm-.736,19.8H36.241a.825.825,0,0,0,0,1.649H37.4A16.724,16.724,0,0,1,21.547,39.96V38.8a.825.825,0,0,0-1.649,0V39.96A16.724,16.724,0,0,1,4.041,24.1H5.2a.825.825,0,1,0,0-1.649H4.041A16.724,16.724,0,0,1,19.9,6.6V7.76a.825.825,0,0,0,1.649,0V6.6a16.637,16.637,0,0,1,10.382,4.308l-2.482,2.482a13.209,13.209,0,1,0,1.167,1.166L33.1,12.072A16.637,16.637,0,0,1,37.4,22.454ZM20.139,23.862a.825.825,0,0,0,1.166,0l4.479-4.479a6.4,6.4,0,1,1-1.166-1.166L20.139,22.7A.825.825,0,0,0,20.139,23.862Zm.583-8.625a8.052,8.052,0,1,0,6.236,2.972l2.487-2.487a11.558,11.558,0,1,1-1.166-1.167l-2.487,2.487A8,8,0,0,0,20.722,15.238Z" transform="translate(0 -0.001)"/></g></g></svg>