<svg xmlns="http://www.w3.org/2000/svg" width="44" height="44" viewBox="0 0 44 44"><defs><style>.a{fill:#1663d5;}</style></defs><g transform="translate(-9.8)"><path class="a" d="M37.026,38.45v1.286a2.067,2.067,0,0,1-1.8,2.019l-.33,1.168A1.506,1.506,0,0,1,33.432,44H30.158A1.506,1.506,0,0,1,28.7,42.923l-.321-1.168a2.076,2.076,0,0,1-1.811-2.028V38.441a1.263,1.263,0,0,1,1.292-1.24h7.877A1.277,1.277,0,0,1,37.026,38.45Zm6.066-17.328a10.563,10.563,0,0,1-3.17,7.523,9.792,9.792,0,0,0-2.774,5.4A1.846,1.846,0,0,1,35.3,35.553H28.291a1.828,1.828,0,0,1-1.84-1.5,9.9,9.9,0,0,0-2.792-5.414,10.573,10.573,0,0,1-3.151-7.4A11.032,11.032,0,0,1,31.725,10.285,11.069,11.069,0,0,1,43.092,21.122ZM33.074,14.558A1.249,1.249,0,0,0,31.8,13.336a8,8,0,0,0-8.151,7.822,1.275,1.275,0,0,0,2.547,0,5.5,5.5,0,0,1,5.6-5.378A1.244,1.244,0,0,0,33.074,14.558ZM31.8,6.727A1.249,1.249,0,0,0,33.074,5.5V1.222a1.275,1.275,0,0,0-2.547,0V5.5A1.249,1.249,0,0,0,31.8,6.727ZM16.809,21.113a1.249,1.249,0,0,0-1.274-1.222H11.074a1.223,1.223,0,1,0,0,2.444h4.462A1.244,1.244,0,0,0,16.809,21.113Zm35.717-1.222H48.064a1.223,1.223,0,1,0,0,2.444h4.462a1.223,1.223,0,1,0,0-2.444ZM19.4,31.289l-3.16,3.033a1.184,1.184,0,0,0,0,1.729,1.314,1.314,0,0,0,1.792,0l3.16-3.033a1.184,1.184,0,0,0,0-1.729A1.3,1.3,0,0,0,19.4,31.289ZM43.3,11.3a1.3,1.3,0,0,0,.9-.353l3.16-3.033a1.184,1.184,0,0,0,0-1.729,1.308,1.308,0,0,0-1.8,0l-3.16,3.033a1.184,1.184,0,0,0,0,1.729A1.323,1.323,0,0,0,43.3,11.3Zm-23.9-.362a1.314,1.314,0,0,0,1.792,0,1.184,1.184,0,0,0,0-1.729l-3.16-3.033a1.308,1.308,0,0,0-1.8,0,1.184,1.184,0,0,0,0,1.729ZM44.2,31.289a1.308,1.308,0,0,0-1.8,0,1.184,1.184,0,0,0,0,1.729l3.16,3.033a1.314,1.314,0,0,0,1.792,0,1.184,1.184,0,0,0,0-1.729Z"/></g></svg>