<svg xmlns="http://www.w3.org/2000/svg" width="28" height="24" viewBox="0 0 28 24"><defs><style>.a{fill:#00aaf2;}</style></defs><path class="a" d="M26.871,39.564a3.487,3.487,0,0,1-.649-2.083s0-.009,0-.013A12.112,12.112,0,0,0,14,25.468a12.383,12.383,0,0,0-4.2.73,3.666,3.666,0,0,1-2.212.1,6.088,6.088,0,0,0-2.038-.2A5.937,5.937,0,0,0,.009,31.632a5.76,5.76,0,0,0,1.121,3.74,3.486,3.486,0,0,1,.649,2.083v.013A12.112,12.112,0,0,0,14,49.468a12.382,12.382,0,0,0,4.2-.73,3.667,3.667,0,0,1,2.212-.1,6.088,6.088,0,0,0,2.038.2A5.937,5.937,0,0,0,27.992,43.3,5.761,5.761,0,0,0,26.871,39.564ZM14.448,35.317c2.464.575,6.188,1.445,6.188,5.472a4.386,4.386,0,0,1-2.8,4.262,10.354,10.354,0,0,1-4.006.619A8.884,8.884,0,0,1,7.42,42.594a1.783,1.783,0,0,1,.291-2.536,1.861,1.861,0,0,1,2.583.286,5.48,5.48,0,0,0,3.533,1.717c2.49.078,3.059-.65,3.132-1.271.09-.758-.6-1.315-3.362-1.961-2.344-.547-5.886-1.374-5.886-5.084,0-1.155.478-4.924,6.635-4.924a8.357,8.357,0,0,1,6.278,3.133,1.784,1.784,0,0,1-.392,2.523,1.861,1.861,0,0,1-2.561-.374,5.548,5.548,0,0,0-3.325-1.673c-1.489-.139-2.959.388-2.959,1.167C11.387,34.423,11.809,34.7,14.448,35.317Z" transform="translate(0 -25.468)"/></svg>