<svg xmlns="http://www.w3.org/2000/svg" width="26" height="28" viewBox="0 0 26 28"><defs><style>.a{fill:#7d3daf;}.b{fill:#fff;}</style></defs><g transform="translate(-76.986 -71.916)"><g transform="translate(76.986 71.916)"><path class="a" d="M102.4,78.648l-.008-.032a9.14,9.14,0,0,0-6.052-6.067l-.029-.006a32.3,32.3,0,0,0-12.659,0l-.03.006a9.144,9.144,0,0,0-6.052,6.067l-.007.032a26.872,26.872,0,0,0,0,11.121l.007.032a9.242,9.242,0,0,0,5.719,5.978v2.949a1.133,1.133,0,0,0,1.958.821l2.868-3.106c.622.036,1.244.056,1.867.056a32.425,32.425,0,0,0,6.329-.626l.029-.006A9.14,9.14,0,0,0,102.4,89.8l.008-.032A26.874,26.874,0,0,0,102.4,78.648Z" transform="translate(-76.986 -71.916)"/><path class="b" d="M159.87,154.21a7.707,7.707,0,0,1-.75-.252,17.024,17.024,0,0,1-6.42-4.676,18.4,18.4,0,0,1-2.456-4.1c-.315-.7-.581-1.424-.852-2.144a1.97,1.97,0,0,1,.5-1.832,4,4,0,0,1,1.322-1.083.806.806,0,0,1,1.062.274,14.976,14.976,0,0,1,1.643,2.506,1.261,1.261,0,0,1-.307,1.615c-.124.092-.238.2-.353.3a1.223,1.223,0,0,0-.267.307.906.906,0,0,0-.051.737,6.5,6.5,0,0,0,3.439,4.149,1.635,1.635,0,0,0,.881.233c.539-.069.713-.712,1.09-1.049a.961.961,0,0,1,1.238-.059c.4.274.783.568,1.166.866a13.532,13.532,0,0,1,1.1.91,1,1,0,0,1,.261,1.174,3.869,3.869,0,0,1-1.565,1.88,3.56,3.56,0,0,1-.677.235C159.606,154.122,160.1,154.132,159.87,154.21Z" transform="translate(-143.125 -134.217)"/><path class="b" d="M221.982,131.457a7.018,7.018,0,0,1,6.9,5.8c.1.582.14,1.177.187,1.767a.414.414,0,0,1-.389.488c-.277,0-.4-.228-.419-.477-.036-.492-.06-.985-.128-1.473a6.172,6.172,0,0,0-4.971-5.159c-.385-.069-.78-.087-1.17-.128-.247-.026-.57-.041-.625-.348a.422.422,0,0,1,.416-.475c.067,0,.134,0,.2,0C225.436,131.554,221.915,131.457,221.982,131.457Z" transform="translate(-209.37 -126.219)"/><path class="b" d="M233.3,155.932a1.58,1.58,0,0,1-.034.24.392.392,0,0,1-.739.04,1.044,1.044,0,0,1-.041-.334,4.184,4.184,0,0,0-.529-2.1,3.907,3.907,0,0,0-1.638-1.537,4.712,4.712,0,0,0-1.306-.4c-.2-.033-.4-.052-.594-.08a.376.376,0,0,1-.356-.422.371.371,0,0,1,.414-.367,5.43,5.43,0,0,1,2.263.59,4.577,4.577,0,0,1,2.491,3.557c.011.072.028.144.034.217.014.18.022.359.036.6C233.3,155.975,233.29,155.7,233.3,155.932Z" transform="translate(-215.335 -143.962)"/><path class="b" d="M236.177,173.96a.427.427,0,0,1-.473-.42,4.355,4.355,0,0,0-.081-.552,1.553,1.553,0,0,0-.573-.9,1.5,1.5,0,0,0-.467-.225c-.212-.061-.432-.044-.644-.1a.4.4,0,0,1-.321-.458.415.415,0,0,1,.438-.334,2.375,2.375,0,0,1,2.433,2.366,1.1,1.1,0,0,1,0,.335.343.343,0,0,1-.309.282C235.888,173.965,236.309,173.951,236.177,173.96Z" transform="translate(-220.266 -162.137)"/></g></g></svg>