<svg xmlns="http://www.w3.org/2000/svg" width="28" height="28" viewBox="0 0 28 28"><defs><style>.a{fill:#4caf50;}.b{fill:#fafafa;}</style></defs><path class="a" d="M14,0H14A13.991,13.991,0,0,0,2.665,22.206L.92,27.407,6.3,25.687A14,14,0,1,0,14,0Z" transform="translate(0)"/><path class="b" d="M123.2,130.113a3.864,3.864,0,0,1-2.688,1.925c-.716.152-1.651.273-4.8-1.027-4.025-1.661-6.618-5.735-6.82-6a7.776,7.776,0,0,1-1.627-4.115,4.348,4.348,0,0,1,1.4-3.32,2,2,0,0,1,1.4-.489c.17,0,.322.009.459.015.4.017.6.041.87.674.33.793,1.135,2.751,1.231,2.952a.809.809,0,0,1,.058.738,2.358,2.358,0,0,1-.443.626c-.2.232-.394.409-.6.658-.185.217-.394.448-.161.849a12.118,12.118,0,0,0,2.222,2.751,10.078,10.078,0,0,0,3.212,1.973.869.869,0,0,0,.966-.152,16.517,16.517,0,0,0,1.07-1.412.766.766,0,0,1,.983-.3c.37.128,2.327,1.091,2.729,1.291s.668.3.765.466A3.385,3.385,0,0,1,123.2,130.113Z" transform="translate(-101.214 -110.484)"/></svg>