<svg xmlns="http://www.w3.org/2000/svg" width="38" height="44" viewBox="0 0 38 44"><defs><style>.a{fill:#414849;}</style></defs><g transform="translate(-33.9)"><g transform="translate(33.9)"><path class="a" d="M193.476,221.145h-2.519a1.658,1.658,0,1,1,0-3.316h4.434a1.1,1.1,0,1,0,0-2.2h-2.08V214.1a1.1,1.1,0,1,0-2.2,0v1.53h-.156a3.857,3.857,0,1,0,0,7.714h2.519a1.658,1.658,0,1,1,0,3.316H188.96a1.1,1.1,0,1,0,0,2.2h2.162v1.567a1.1,1.1,0,1,0,2.2,0v-1.567h.211a3.857,3.857,0,0,0-.055-7.714Z" transform="translate(-172.991 -193.553)"/><path class="a" d="M69.711,25.128A31.44,31.44,0,0,0,64.929,17.5a35.552,35.552,0,0,0-6.125-5.79l4.69-8.654a1.079,1.079,0,0,0-.2-1.3A5.511,5.511,0,0,0,59.356,0a9.3,9.3,0,0,0-3.568.933,6.78,6.78,0,0,1-2.244.668,1.4,1.4,0,0,1-.524-.091A16.416,16.416,0,0,0,47.52.22,7.471,7.471,0,0,0,41.984,2.8a1.1,1.1,0,0,0-.129,1.372l5.058,7.6A36.146,36.146,0,0,0,40.871,17.5a31.723,31.723,0,0,0-4.782,7.629A25.824,25.824,0,0,0,33.9,35.484,8.553,8.553,0,0,0,42.462,44H63.338A8.553,8.553,0,0,0,71.9,35.484,25.824,25.824,0,0,0,69.711,25.128ZM44.209,3.714A4.825,4.825,0,0,1,47.52,2.4a14.393,14.393,0,0,1,4.736,1.162,3.755,3.755,0,0,0,1.278.22,8.18,8.18,0,0,0,3.09-.832,7.489,7.489,0,0,1,2.722-.768,2.93,2.93,0,0,1,1.775.6l-4.414,8.16H49.019ZM63.338,41.8H42.462a6.345,6.345,0,0,1-6.355-6.321c0-5.864,2.161-11.425,6.41-16.53a33.694,33.694,0,0,1,6.244-5.818H57.02a33.058,33.058,0,0,1,6.244,5.818c4.258,5.1,6.41,10.657,6.41,16.53A6.318,6.318,0,0,1,63.338,41.8Z" transform="translate(-33.9 0)"/></g></g></svg>